<svg xmlns="http://www.w3.org/2000/svg" viewBox="0 0 32 32">
  <defs>
    <linearGradient id="g" x1="0" y1="0" x2="0" y2="1">
      <stop offset="0%" stop-color="#16a34a"/>
      <stop offset="100%" stop-color="#166534"/>
    </linearGradient>
  </defs>
  <rect width="32" height="32" rx="8" fill="url(#g)"/>
  <path d="M16 6 C16 6 10 12 10 18 C10 21.3 12.7 24 16 24 C19.3 24 22 21.3 22 18 C22 12 16 6 16 6Z" fill="#fbbf24" opacity="0.9"/>
  <path d="M16 10 C16 10 13 14 13 17 C13 18.7 14.3 20 16 20 C17.7 20 19 18.7 19 17 C19 14 16 10 16 10Z" fill="white" opacity="0.6"/>
  <text x="16" y="29" text-anchor="middle" font-family="sans-serif" font-size="4" font-weight="bold" fill="white" opacity="0.7">AGRO</text>
</svg>
